<?xml version="1.0" standalone="no"?>
<!DOCTYPE svg PUBLIC "-//W3C//DTD SVG 20010904//EN"
 "http://www.w3.org/TR/2001/REC-SVG-20010904/DTD/svg10.dtd">
<svg version="1.0" xmlns="http://www.w3.org/2000/svg"
 width="360.000000pt" height="360.000000pt" viewBox="0 0 360.000000 360.000000"
 preserveAspectRatio="xMidYMid meet">

<g transform="translate(0.000000,360.000000) scale(0.100000,-0.100000)"
fill="#000000" stroke="none">
<path d="M1644 3590 c-598 -68 -1088 -464 -1278 -1030 -53 -159 -69 -270 -69
-470 -1 -200 14 -299 69 -466 38 -117 134 -307 205 -409 79 -110 238 -271 345
-347 172 -123 374 -211 577 -253 l27 -5 0 -95 0 -95 -367 0 c-347 0 -370 -1
-400 -20 -58 -35 -67 -67 -71 -242 l-4 -158 1116 0 1116 0 0 160 c0 184 -7
208 -70 240 -37 19 -58 20 -400 20 l-360 0 0 94 c0 99 3 106 51 106 35 0 214
62 315 110 367 172 655 498 784 889 54 162 70 272 70 471 0 198 -16 306 -71
474 -124 379 -398 695 -758 876 -109 54 -292 114 -411 134 -115 20 -319 28
-416 16z m395 -155 c75 -15 232 -59 254 -72 14 -8 -103 -92 -177 -128 -103
-48 -193 -68 -316 -67 -189 0 -326 49 -480 171 l-25 20 35 15 c53 22 192 56
294 71 110 17 295 12 415 -10z m-14 -643 c199 -67 346 -194 439 -379 79 -157
94 -373 39 -548 -59 -185 -209 -356 -388 -441 -111 -53 -184 -69 -320 -69
-136 0 -220 21 -335 81 -436 228 -533 805 -197 1162 101 107 219 175 366 213
116 29 276 22 396 -19z"/>
<path d="M1685 2467 c-23 -8 -50 -19 -60 -25 -17 -10 -13 -11 27 -12 58 0 95
-14 132 -48 80 -75 86 -202 13 -280 -66 -71 -183 -83 -254 -26 -59 49 -75 77
-82 146 l-6 63 -20 -50 c-15 -38 -20 -73 -20 -150 0 -90 3 -106 29 -160 38
-77 114 -153 191 -191 55 -26 69 -29 165 -29 94 0 111 3 161 28 88 43 143 98
186 185 36 73 38 80 38 176 0 90 -4 107 -28 158 -41 84 -107 152 -184 190 -57
28 -78 33 -157 35 -56 2 -107 -2 -131 -10z"/>
</g>
</svg>
